<?xml version="1.0" encoding="iso-8859-1"?>
<!-- Generator: Adobe Illustrator 18.1.1, SVG Export Plug-In . SVG Version: 6.00 Build 0)  -->
<svg version="1.1" id="Layer_1" xmlns="http://www.w3.org/2000/svg" xmlns:xlink="http://www.w3.org/1999/xlink" x="0px" y="0px"
	 viewBox="-49 141 512 512" style="enable-background:new -49 141 512 512;" xml:space="preserve">
<circle style="fill:#FFD05B;" cx="207" cy="397" r="252.5"/>
<polygon style="fill:#FFFFFF;" points="133.9,230.6 133.9,284.2 80.4,284.2 80.4,563.4 333.6,563.4 333.6,230.6 "/>
<polygon style="fill:#E6E9EE;" points="133.9,230.6 80.4,284.2 133.9,284.2 "/>
<path style="fill:#FF7058;" d="M207,482c0,2.7-0.2,5.5-0.6,8.1c-3.6,22.6-22.1,40.3-45,42.7c-1.8,0.2-3.6,0.3-5.5,0.3
	c-28.3,0-51.2-22.9-51.2-51.1c0-23.5,15.9-43.4,37.6-49.3c4.3-1.2,8.9-1.8,13.6-1.8c13.6,0,26,5.3,35.1,14
	C200.9,454.1,207,467.3,207,482z"/>
<path style="fill:#FFD05B;" d="M191,444.8L155.9,482l-13.6-49.3c4.3-1.2,8.9-1.8,13.6-1.8C169.5,430.8,181.9,436.1,191,444.8z"/>
<path style="fill:#E6E9EE;" d="M207,482c0,2.7-0.2,5.5-0.6,8.1l-50.5-8.1l35.1-37.1C200.9,454.1,207,467.3,207,482z"/>
<path style="fill:#4CDBC4;" d="M206.4,490.1c-3.6,22.6-22.1,40.3-45,42.7l-5.5-50.8L206.4,490.1z"/>
<rect x="222.8" y="444.4" style="fill:#FFD05B;" width="15.4" height="13.6"/>
<rect x="222.8" y="475.1" style="fill:#4CDBC4;" width="15.4" height="13.6"/>
<rect x="222.8" y="505.9" style="fill:#FF7058;" width="15.4" height="13.6"/>
<g>
	<rect x="249" y="444.4" style="fill:#E6E9EE;" width="61.9" height="13.6"/>
	<rect x="249" y="475.1" style="fill:#E6E9EE;" width="61.9" height="13.6"/>
	<rect x="249" y="505.9" style="fill:#E6E9EE;" width="61.9" height="13.6"/>
</g>
<rect x="293.169" y="347.365" transform="matrix(0.7071 -0.7071 0.7071 0.7071 -174.8629 322.6727)" style="fill:#2B3B4E;" width="17.8" height="50.1"/>
<circle style="fill:#324A5E;" cx="254.9" cy="325.2" r="67.8"/>
<circle style="fill:#E6E9EE;" cx="254.9" cy="325.2" r="51.3"/>
<path style="fill:#FF7058;" d="M305.6,399.3l23.3-23.3c0.7-0.7,1.7-0.7,2.4,0l43.1,43.1c0.7,0.7,0.7,1.7,0,2.4l-23.3,23.3
	c-0.7,0.7-1.7,0.7-2.4,0l-43.1-43.1C305,401,305,399.9,305.6,399.3z"/>
<rect x="321.28" y="392.225" transform="matrix(-0.7071 -0.7071 0.7071 -0.7071 290.2886 940.9907)" style="fill:#E6E9EE;" width="37.5" height="36.3"/>
<g>
	<rect x="104.7" y="314.8" style="fill:#54C0EB;" width="15.9" height="61.7"/>
	<rect x="129.3" y="336.4" style="fill:#54C0EB;" width="15.9" height="40.1"/>
	<rect x="153.9" y="353.9" style="fill:#54C0EB;" width="15.9" height="22.6"/>
</g>
</svg>
