<?xml version="1.0" encoding="iso-8859-1"?>
<!-- Generator: Adobe Illustrator 18.1.1, SVG Export Plug-In . SVG Version: 6.00 Build 0)  -->
<svg version="1.1" id="Layer_1" xmlns="http://www.w3.org/2000/svg" xmlns:xlink="http://www.w3.org/1999/xlink" x="0px" y="0px"
	 viewBox="-49 141 512 512" style="enable-background:new -49 141 512 512;" xml:space="preserve">
<circle style="fill:#FFD05B;" cx="207" cy="397" r="252"/>
<rect x="49.5" y="239.5" style="fill:#54C0EB;" width="315" height="315"/>
<rect x="77.1" y="305.7" style="fill:#FFFFFF;" width="259.9" height="221.2"/>
<rect x="77.1" y="263" style="fill:#F1543F;" width="32.5" height="19.2"/>
<rect x="130.7" y="263" style="fill:#FFFFFF;" width="32.5" height="19.2"/>
<rect x="184.4" y="263" style="fill:#2B3B4E;" width="32.5" height="19.2"/>
<circle style="fill:#324A5E;" cx="207" cy="416.3" r="80.9"/>
<g>
	<polygon style="fill:#FFFFFF;" points="170.2,449.8 135.2,416.3 170.2,382.9 180.6,393.8 157,416.3 180.6,438.9 	"/>
	<polygon style="fill:#FFFFFF;" points="243.8,449.8 233.4,438.9 257,416.3 233.4,393.8 243.8,382.9 278.8,416.3 	"/>
	
		<rect x="199.499" y="358.507" transform="matrix(-0.9299 -0.3678 0.3678 -0.9299 246.3702 879.5659)" style="fill:#FFFFFF;" width="15" height="115.599"/>
</g>
</svg>
