<?xml version="1.0" encoding="iso-8859-1"?>
<!-- Generator: Adobe Illustrator 18.1.1, SVG Export Plug-In . SVG Version: 6.00 Build 0)  -->
<svg version="1.1" id="Layer_1" xmlns="http://www.w3.org/2000/svg" xmlns:xlink="http://www.w3.org/1999/xlink" x="0px" y="0px"
	 viewBox="-49 141 512 512" style="enable-background:new -49 141 512 512;" xml:space="preserve">
<path style="fill:#FFD24D;" d="M207,141C65.615,141-49,255.615-49,397.001c0,53.507,16.426,103.174,44.497,144.252l-33.626,100.875
	l100.877-33.625C103.826,636.574,153.491,653,207,653c141.385,0,256-114.615,256-255.999C463,255.615,348.385,141,207,141z"/>
<path style="fill:#F14742;" d="M326.744,473.549c-19.326-19.325-40.026-35.594-40.026-35.594l-30.158,30.159L135.887,347.44
	l30.159-30.158c0,0-16.268-20.7-35.594-40.026c-19.326-19.325-40.025-35.594-40.025-35.594s-36.137,33.244-38.567,59.61
	c-3.252,35.293,34.106,99.459,92.758,158.111s122.817,96.01,158.11,92.757c26.367-2.431,59.61-38.566,59.61-38.566
	S346.069,492.876,326.744,473.549z"/>
</svg>
