<?xml version="1.0" encoding="iso-8859-1"?>
<!-- Generator: Adobe Illustrator 18.1.1, SVG Export Plug-In . SVG Version: 6.00 Build 0)  -->
<svg version="1.1" id="Layer_1" xmlns="http://www.w3.org/2000/svg" xmlns:xlink="http://www.w3.org/1999/xlink" x="0px" y="0px"
	 viewBox="-49 141 512 512" style="enable-background:new -49 141 512 512;" xml:space="preserve">
<circle style="fill:#FFD05B;" cx="207" cy="397" r="252"/>
<path style="fill:#324A5E;" d="M352.1,239.5H61.9c-6.8,0-12.4,5.5-12.4,12.4v205.2v35.3c0,6.8,5.5,12.4,12.4,12.4h290.2
	c6.8,0,12.4-5.5,12.4-12.4v-35.3V251.9C364.5,245,359,239.5,352.1,239.5z"/>
<path style="fill:#2B3B4E;" d="M286.6,554.5H127.4c-4.1,0-6.7-4.3-4.8-7.9l21.9-41.8h125l21.9,41.8
	C293.3,550.2,290.6,554.5,286.6,554.5z"/>
<rect x="65.3" y="255.3" style="fill:#E6E9EE;" width="283.5" height="201.9"/>
<circle style="fill:#FFFFFF;" cx="207" cy="480.9" r="14"/>
<rect x="185.626" y="269.851" transform="matrix(-0.7071 0.7071 -0.7071 -0.7071 605.3729 461.647)" style="fill:#FFD05B;" width="42.9" height="172.698"/>
<g>
	
		<rect x="137.625" y="309.508" transform="matrix(-0.7071 0.7071 -0.7071 -0.7071 470.8484 432.3837)" style="fill:#F9B54C;" width="16.5" height="8.4"/>
	
		<rect x="149.487" y="319.927" transform="matrix(-0.7071 0.7071 -0.7071 -0.7071 504.5266 439.2719)" style="fill:#F9B54C;" width="23.6" height="8.4"/>
	
		<rect x="163.522" y="335.418" transform="matrix(-0.7071 0.7071 -0.7071 -0.7071 533.3798 458.3023)" style="fill:#F9B54C;" width="16.5" height="8.4"/>
	
		<rect x="175.381" y="345.837" transform="matrix(-0.7071 0.7071 -0.7071 -0.7071 567.0513 465.1935)" style="fill:#F9B54C;" width="23.6" height="8.4"/>
	
		<rect x="189.42" y="361.328" transform="matrix(-0.7071 0.7071 -0.7071 -0.7071 595.9112 484.221)" style="fill:#F9B54C;" width="16.5" height="8.4"/>
	
		<rect x="201.279" y="371.747" transform="matrix(-0.7071 0.7071 -0.7071 -0.7071 629.5826 491.1121)" style="fill:#F9B54C;" width="23.6" height="8.4"/>
	
		<rect x="215.308" y="387.238" transform="matrix(-0.7071 0.7071 -0.7071 -0.7071 658.4255 510.1467)" style="fill:#F9B54C;" width="16.5" height="8.4"/>
	
		<rect x="227.308" y="397.667" transform="matrix(-0.7071 0.7071 -0.7071 -0.7071 692.3455 516.9549)" style="fill:#F9B54C;" width="23.6" height="8.4"/>
	
		<rect x="241.277" y="413.087" transform="matrix(-0.7071 0.7071 -0.7071 -0.7071 721.0347 535.9117)" style="fill:#F9B54C;" width="16.5" height="8.4"/>
</g>
<rect x="183.882" y="287.681" transform="matrix(0.7071 0.7071 -0.7071 0.7071 305.9221 -35.1008)" style="fill:#F1543F;" width="22.9" height="128.099"/>
<rect x="200.011" y="303.83" transform="matrix(0.7071 0.7071 -0.7071 0.7071 322.0655 -41.7759)" style="fill:#FF7058;" width="22.9" height="128.099"/>
<path style="fill:#4CDBC4;" d="M141.9,388.9l-8.6,8.6c-3.3,3.3-3.3,8.7,0,12l20.4,20.4c3.3,3.3,8.7,3.3,12,0l8.6-8.6L141.9,388.9z"
	/>
<g>
	
		<rect x="141.333" y="390.155" transform="matrix(-0.7071 -0.7071 0.7071 -0.7071 -1.6703 797.0178)" style="fill:#324A5E;" width="45.8" height="17.4"/>
	<polygon style="fill:#324A5E;" points="283.2,280 267.2,285.8 277.4,296 	"/>
</g>
<polygon style="fill:#FFFFFF;" points="264.9,330.7 277.4,296 267.2,285.8 232.5,298.3 "/>
</svg>
