<?xml version="1.0" encoding="iso-8859-1"?>
<!-- Generator: Adobe Illustrator 18.1.1, SVG Export Plug-In . SVG Version: 6.00 Build 0)  -->
<svg version="1.1" id="Web_Design_2_" xmlns="http://www.w3.org/2000/svg" xmlns:xlink="http://www.w3.org/1999/xlink" x="0px"
	 y="0px" viewBox="0 0 1200 1200" style="enable-background:new 0 0 1200 1200;" xml:space="preserve">
<g id="Background">
	<circle id="Background_2" style="fill:#72BBCE;" cx="593.527" cy="624.403" r="500.13"/>
</g>
<g id="Web_Design_1_">
	<g>
		<polygon style="fill:#FFDB79;" points="353.428,107.084 541.05,107.084 545.543,107.084 545.543,111.578 545.543,237.986 
			696.034,237.986 700.524,237.986 700.524,242.479 700.524,306.322 691.538,306.322 691.538,246.974 541.05,246.974 
			536.557,246.974 536.557,242.479 536.557,116.07 353.428,116.07 		"/>
		<polygon style="fill:#FFDB79;" points="205.144,171.601 106.288,171.601 106.288,341.93 97.301,341.93 97.301,167.109 
			97.301,162.615 101.795,162.615 205.144,162.615 		"/>
	</g>
	<g>
		<path style="fill-rule:evenodd;clip-rule:evenodd;fill:#34465C;" d="M255.674,387.627h748.456
			c15.177,0,27.641,12.464,27.641,27.723v511.236H227.951V415.35C227.951,400.091,240.413,387.627,255.674,387.627L255.674,387.627z
			"/>
		<path style="fill-rule:evenodd;clip-rule:evenodd;fill:#34404F;" d="M103.405,1020.101h526.498h526.41
			c2.885,0,2.29-2.207-1.269-4.917l-113.017-86.902c-3.558-2.715-8.817-4.916-11.7-4.916H629.903H229.477
			c-2.883,0-8.139,2.201-11.701,4.916l-113.098,86.902C101.117,1017.894,100.523,1020.101,103.405,1020.101L103.405,1020.101z"/>
		<path style="fill-rule:evenodd;clip-rule:evenodd;fill:#34465C;" d="M107.646,1013.828c348.114,0,696.316,0,1044.513,0
			c7.884,0,8.648,6.442,1.695,14.412l-14.156,16.026c-7.035,7.968-19.245,14.41-27.133,14.41c-321.829,0-643.579,0-965.326,0
			c-7.971,0-20.178-6.442-27.13-14.41l-14.159-16.026C98.912,1020.27,99.676,1013.828,107.646,1013.828L107.646,1013.828z"/>
		<polygon style="fill-rule:evenodd;clip-rule:evenodd;fill:#6E7F8F;" points="547.833,971.776 592.173,971.776 667.632,971.776 
			711.888,971.776 736.556,998.819 642.958,998.819 616.846,998.819 523.162,998.819 		"/>
		<rect x="253.216" y="422.217" style="fill-rule:evenodd;clip-rule:evenodd;fill:#FFE8AE;" width="753.372" height="476.9"/>
	</g>
	<g>
		<g>
			<path style="fill-rule:evenodd;clip-rule:evenodd;fill:#FEFEFE;" d="M1082.3,297.927c5.935-9.665,9.75-20.263,11.444-31.284
				l33.404-5.765l-8.987-51.802l-33.406,5.85c-2.623-4.833-5.762-9.496-9.408-13.904c-3.646-4.325-7.715-8.224-11.951-11.7
				l11.612-31.794l-49.258-18.144l-11.7,31.878c-11.105-0.338-22.298,1.525-32.812,5.681l-21.703-26.028l-40.358,33.744
				l21.707,25.942c-5.936,9.665-9.751,20.347-11.448,31.286l-33.403,5.85l8.987,51.716l33.404-5.764
				c2.628,4.833,5.765,9.496,9.408,13.819c3.648,4.409,7.718,8.31,11.957,11.7l-11.7,31.879l49.345,18.057l11.697-31.877
				c11.107,0.338,22.298-1.526,32.81-5.68l21.705,26.028l40.353-33.658L1082.3,297.927z"/>
			<path style="fill-rule:evenodd;clip-rule:evenodd;fill:#363F48;" d="M1028.465,274.442c11.103-9.325,12.633-25.859,3.305-36.965
				c-9.326-11.191-25.858-12.632-37.051-3.39c-11.107,9.326-12.633,25.943-3.306,37.048
				C1000.737,282.242,1017.27,283.769,1028.465,274.442L1028.465,274.442z M1044.742,293.943
				c21.873-18.314,24.841-50.869,6.528-72.828c-18.315-21.874-50.87-24.841-72.83-6.527c-21.872,18.312-24.84,50.954-6.527,72.828
				C990.226,309.374,1022.783,312.255,1044.742,293.943L1044.742,293.943z"/>
		</g>
		<g>
			<path style="fill-rule:evenodd;clip-rule:evenodd;fill:#FEFEFE;" d="M868.987,189.153c-3.139-7.208-7.715-13.651-13.312-18.907
				l9.836-21.366l-33.231-15.261l-9.837,21.366c-3.732-0.424-7.631-0.424-11.617-0.085c-3.899,0.425-7.715,1.189-11.361,2.288
				l-13.65-19.244l-29.842,21.11l13.65,19.246c-4.495,6.189-7.887,13.311-9.665,21.026l-23.486,2.119l3.392,36.372l23.485-2.204
				c3.222,7.207,7.799,13.65,13.395,18.907l-9.833,21.448l33.151,15.177l9.836-21.366c3.812,0.425,7.71,0.425,11.61,0.087
				c3.988-0.34,7.802-1.103,11.449-2.206l13.648,19.161l29.759-21.111l-13.648-19.245c4.578-6.189,7.883-13.312,9.662-20.943
				l23.488-2.202l-3.392-36.372L868.987,189.153z"/>
			<path style="fill-rule:evenodd;clip-rule:evenodd;fill:#363F48;" d="M834.396,210.686c-0.933-10.003-9.834-17.38-19.923-16.446
				c-10.004,0.931-17.38,9.835-16.447,19.838c0.931,10.005,9.834,17.465,19.839,16.534
				C827.953,229.593,835.33,220.776,834.396,210.686L834.396,210.686z M851.948,209.076c-1.866-19.754-19.331-34.254-39.085-32.471
				c-19.755,1.866-34.254,19.329-32.475,39.082c1.868,19.755,19.416,34.338,39.172,32.473
				C839.313,246.295,853.808,228.831,851.948,209.076L851.948,209.076z"/>
		</g>
	</g>
	<g>
		<path style="fill-rule:evenodd;clip-rule:evenodd;fill:#FEFEFE;" d="M282.212,39.936c-36.457,0-67.063,23.4-75.713,55.108
			c-35.437,3.815-62.992,32.047-62.992,66.3c0,36.963,31.964,66.892,71.301,66.892l0,0h182.282l0,0c0.169,0,0.338,0,0.509,0
			c33.996,0,61.552-25.857,61.552-57.736c0-23.739-15.346-44.172-37.136-52.99c0-0.424,0-0.762,0-1.185
			c0-22.553-19.5-40.78-43.493-40.78c-9.326,0-18.06,2.797-25.096,7.459C341.134,57.654,313.835,39.936,282.212,39.936
			L282.212,39.936z"/>
		<path style="fill-rule:evenodd;clip-rule:evenodd;fill:#FEFEFE;" d="M531.301,193.305c-19.076,0-35.015,12.21-39.509,28.741
			c-18.482,2.036-32.895,16.787-32.895,34.676c0,19.244,16.617,34.844,37.219,34.844l0,0h95.126l0,0c0.084,0,0.169,0,0.254,0
			c17.718,0,32.132-13.479,32.132-30.096c0-12.379-7.969-23.061-19.413-27.637c0-0.256,0-0.425,0-0.681
			c0-11.699-10.09-21.279-22.638-21.279c-4.918,0-9.411,1.441-13.142,3.898C562.076,202.547,547.833,193.305,531.301,193.305
			L531.301,193.305z"/>
	</g>
	<g>
		<rect x="936.473" y="619.167" style="fill-rule:evenodd;clip-rule:evenodd;fill:#FEFEFE;" width="252.058" height="324.206"/>
		<path style="fill-rule:evenodd;clip-rule:evenodd;fill:#F16858;" d="M1190.143,619.167h-127.598H934.948
			c-5.087,0-9.156-4.156-9.156-9.156v-13.568c0-5.001,4.069-9.153,9.156-9.153h92.073c-0.169-1.274-0.255-2.544-0.255-3.815
			c0-19.757,16.023-35.781,35.779-35.781c19.671,0,35.694,16.024,35.694,35.781c0,1.271-0.084,2.541-0.169,3.815h92.073
			c4.999,0,9.156,4.152,9.156,9.153v13.568C1199.299,615.011,1195.142,619.167,1190.143,619.167L1190.143,619.167z
			 M1062.545,569.654c-7.63,0-13.82,6.189-13.82,13.822c0,7.543,6.19,13.732,13.82,13.732c7.545,0,13.735-6.189,13.735-13.732
			C1076.28,575.843,1070.09,569.654,1062.545,569.654L1062.545,569.654z"/>
		<path style="fill-rule:evenodd;clip-rule:evenodd;fill:#C02729;" d="M1190.143,619.167h-127.598H934.948
			c-5.087,0-9.156-4.156-9.156-9.156v-0.084h273.507v0.084C1199.299,615.011,1195.142,619.167,1190.143,619.167L1190.143,619.167z"
			/>
		<polygon style="fill-rule:evenodd;clip-rule:evenodd;fill:#D0D2D4;" points="1147.326,943.373 1188.531,902.169 1147.326,902.761 
					"/>
		<g>
			<rect x="973.607" y="665.119" style="fill-rule:evenodd;clip-rule:evenodd;fill:#7C7C7C;" width="177.788" height="15.091"/>
			<rect x="973.607" y="723.363" style="fill-rule:evenodd;clip-rule:evenodd;fill:#7C7C7C;" width="177.788" height="15.092"/>
			<rect x="973.607" y="781.694" style="fill-rule:evenodd;clip-rule:evenodd;fill:#7C7C7C;" width="177.788" height="15.09"/>
			<rect x="973.607" y="839.937" style="fill-rule:evenodd;clip-rule:evenodd;fill:#7C7C7C;" width="177.788" height="15.093"/>
		</g>
	</g>
	<g>
		<g>
			<path style="fill-rule:evenodd;clip-rule:evenodd;fill:#FFFFFF;" d="M26.423,305.811h849.006c11.787,0,21.365,9.665,21.365,21.45
				V810.35c0,11.787-9.578,21.452-21.365,21.452H26.423c-11.785,0-21.449-9.665-21.449-21.452V327.262
				C4.974,315.477,14.638,305.811,26.423,305.811L26.423,305.811z"/>
			<g>
				<path style="fill-rule:evenodd;clip-rule:evenodd;fill:#353F49;" d="M23.795,305.811h854.178
					c10.342,0,18.821,8.479,18.821,18.823v57.821c0,0.847-0.676,1.526-1.525,1.526H4.974v-59.348
					C4.974,314.29,13.451,305.811,23.795,305.811L23.795,305.811z"/>
				<path style="fill-rule:evenodd;clip-rule:evenodd;fill:#F77B55;" d="M49.061,361.175c9.07,0,16.362-7.715,16.362-17.126
					c0-9.496-7.291-17.125-16.362-17.125c-8.988,0-16.365,7.629-16.365,17.125C32.696,353.459,40.073,361.175,49.061,361.175
					L49.061,361.175z"/>
				<path style="fill-rule:evenodd;clip-rule:evenodd;fill:#76D0DE;" d="M94.844,361.175c8.985,0,16.362-7.715,16.362-17.126
					c0-9.496-7.376-17.125-16.362-17.125c-9.073,0-16.364,7.629-16.364,17.125C78.479,353.459,85.771,361.175,94.844,361.175
					L94.844,361.175z"/>
				<path style="fill-rule:evenodd;clip-rule:evenodd;fill:#FFDB79;" d="M140.625,361.175c8.986,0,16.364-7.715,16.364-17.126
					c0-9.496-7.377-17.125-16.364-17.125c-9.072,0-16.448,7.629-16.448,17.125C124.178,353.459,131.553,361.175,140.625,361.175
					L140.625,361.175z"/>
				<rect x="181.829" y="329.636" style="fill-rule:evenodd;clip-rule:evenodd;fill:#FFFFFF;" width="689.616" height="32.472"/>
			</g>
		</g>
		<rect x="76.614" y="414.503" style="fill-rule:evenodd;clip-rule:evenodd;fill:#CCCCCC;" width="191.354" height="25.264"/>
		<rect x="347.322" y="414.503" style="fill-rule:evenodd;clip-rule:evenodd;fill:#CCCCCC;" width="191.355" height="25.264"/>
		<rect x="618.879" y="414.503" style="fill-rule:evenodd;clip-rule:evenodd;fill:#CCCCCC;" width="191.354" height="25.264"/>
		<rect x="71.444" y="481.311" style="fill-rule:evenodd;clip-rule:evenodd;fill:#FFDB79;" width="460.367" height="209.581"/>
		<rect x="569.708" y="481.311" style="fill-rule:evenodd;clip-rule:evenodd;fill:#F77B55;" width="141.074" height="134.124"/>
		<rect x="67.968" y="715.311" style="fill-rule:evenodd;clip-rule:evenodd;fill:#CCCCCC;" width="351.76" height="14.411"/>
		<rect x="135.199" y="742.357" style="fill-rule:evenodd;clip-rule:evenodd;fill:#CCCCCC;" width="351.76" height="14.496"/>
		<rect x="78.311" y="771.266" style="fill-rule:evenodd;clip-rule:evenodd;fill:#CCCCCC;" width="351.76" height="14.497"/>
		<polygon style="fill-rule:evenodd;clip-rule:evenodd;fill:#FFFFFF;" points="668.817,548.373 640.246,565.67 611.674,582.965 
			611.674,548.373 611.674,513.784 640.246,531.08 		"/>
		<rect x="569.708" y="648.163" style="fill-rule:evenodd;clip-rule:evenodd;fill:#08C6A2;" width="282.154" height="134.124"/>
		<rect x="710.782" y="481.311" style="fill-rule:evenodd;clip-rule:evenodd;fill:#FFDB79;" width="141.08" height="134.124"/>
		<path style="fill-rule:evenodd;clip-rule:evenodd;fill:#353F49;" d="M177.082,604.161l-26.706-11.87l30.775-11.869l1.272-6.952
			l-40.358,15.43l-1.185,6.782l35.014,15.431L177.082,604.161z M237.276,596.528l-6.614,38.24h9.496l14.669-84.952h-9.496
			l-6.615,38.235h-20.855l6.614-38.235h-9.496l-14.668,84.952h9.497l6.611-38.24H237.276z M271.443,634.768l13.227-76.388h15.598
			l1.527-8.564h-40.695l-1.442,8.564h15.686l-13.227,76.388H271.443z M350.121,566.433l-11.785,68.335h8.987l14.668-84.952h-13.225
			l-25.181,67.824l-2.204-67.824h-13.227l-14.751,84.952h8.223l11.786-67.743l2.373,67.659h9.072L350.121,566.433z M390.734,634.768
			l1.523-8.648h-24.246l13.141-76.304h-9.41l-14.753,84.952H390.734z M420.83,611.112l40.271-15.431l1.187-6.782l-34.93-15.43
			l-1.187,6.952l26.706,11.869l-30.862,11.87L420.83,611.112z"/>
		<path style="fill-rule:evenodd;clip-rule:evenodd;fill:#FEFEFE;" d="M644.06,725.568l-21.361-9.411l24.16-9.409l0.761-5.425
			l-31.538,12.12l-0.761,5.428l27.893,12.208L644.06,725.568z M672.97,682.584l-10.003,67.146h15.684
			c10.514,0,16.279-6.273,17.804-16.615l5.002-33.829c1.612-10.342-2.287-16.703-12.717-16.703H672.97z M671.445,742.95
			l8.052-53.583h8.057c5.426,0,7.545,3.393,6.614,9.496l-5.174,34.59c-0.93,6.104-3.983,9.496-9.411,9.496H671.445z
			 M710.951,682.584l-10.003,67.146h7.464l10.088-67.146H710.951z M724.265,682.584l2.541,67.146h11.107l22.551-67.146H753.6
			l-19.587,58.413l-2.205-58.413H724.265z M773.861,731.077l31.54-12.208l0.846-5.428l-27.889-12.12l-0.851,5.425l21.365,9.409
			l-24.163,9.411L773.861,731.077z"/>
	</g>
</g>
<g>
</g>
<g>
</g>
<g>
</g>
<g>
</g>
<g>
</g>
<g>
</g>
</svg>
